<svg width="16" height="15" viewBox="0 0 16 15" xmlns="http://www.w3.org/2000/svg"><title>Artboard</title><g fill="none" fill-rule="evenodd"><path fill="#1D335E" d="M0 0h16.02v15H0z"/><path d="M4.349 0h8.302c.19 0 .346.146.349.328v1.826a.346.346 0 0 1-.349.333H7.113a.336.336 0 0 0-.344.328v3.581c0 .182.153.33.344.333h4.863c.193 0 .35.149.35.332v1.8a.346.346 0 0 1-.35.332H7.113a.353.353 0 0 0-.245.098.32.32 0 0 0-.1.235v5.142A.346.346 0 0 1 6.42 15H4.349A.341.341 0 0 1 4 14.668V.328a.32.32 0 0 1 .103-.233A.354.354 0 0 1 4.349 0z" fill="#F4D165"/></g></svg>