<svg width="50" height="50" viewBox="0 0 50 50" fill="none" xmlns="http://www.w3.org/2000/svg"><g clip-path="url(#a)" stroke="#fff" stroke-width="2.083" stroke-linecap="round" stroke-linejoin="round"><path d="M36.467 17.708H5.217a4.167 4.167 0 0 0-4.167 4.167v20.833a4.167 4.167 0 0 0 4.166 4.167h31.25a4.167 4.167 0 0 0 4.167-4.167V21.875a4.167 4.167 0 0 0-4.166-4.167z"/><path d="M10.425 21.875H6.258c-.575 0-1.042.466-1.042 1.042v4.166c0 .576.467 1.042 1.042 1.042h4.167c.575 0 1.041-.466 1.041-1.042v-4.166c0-.576-.466-1.042-1.041-1.042zm-5.209 12.5h10.417M5.216 38.542h8.334m18.741-5.209a4.148 4.148 0 0 0-3.125 1.413 4.166 4.166 0 1 0 0 5.508 4.168 4.168 0 1 0 3.125-6.92zm-6.25 0a4.167 4.167 0 0 1 4.073 3.284m14.678-6.409a4.167 4.167 0 0 0 4.166-4.166V7.292a4.167 4.167 0 0 0-4.166-4.167h-31.25a4.167 4.167 0 0 0-4.167 4.167v6.25m.008-2.084h39.584"/></g><defs><clipPath id="a"><path fill="#fff" d="M0 0h50v50H0z"/></clipPath></defs></svg>