<svg width="17" height="16" viewBox="0 0 17 16" fill="none" xmlns="http://www.w3.org/2000/svg"><path d="M4.696 14.938H1.238V5.729h3.458v9.209zm6.225-6.375c-.367 0-.719.149-.978.415a1.43 1.43 0 0 0-.405 1.001v4.959H6.079V5.729h3.459v1.052a4.303 4.303 0 0 1 2.76-1.059c2.048 0 3.465 1.559 3.465 4.502v4.714h-3.459V9.979c0-.375-.146-.736-.405-1.001a1.367 1.367 0 0 0-.978-.415zM4.696 2.542c0 .35-.102.692-.292.984-.19.29-.46.518-.776.652s-.663.169-.999.1a1.717 1.717 0 0 1-.885-.484 1.784 1.784 0 0 1-.473-.907 1.81 1.81 0 0 1 .098-1.023c.131-.323.353-.6.637-.795a1.7 1.7 0 0 1 2.183.22c.325.333.507.783.507 1.253z" stroke="#fff" stroke-width=".7" stroke-linecap="round" stroke-linejoin="round"/></svg>