<svg width="50" height="50" viewBox="0 0 50 50" fill="none" xmlns="http://www.w3.org/2000/svg"><g clip-path="url(#a)" stroke="#fff" stroke-width="2" stroke-linecap="round" stroke-linejoin="round"><path d="M25.075 48.954c13.232 0 23.958-10.726 23.958-23.958 0-13.232-10.726-23.958-23.958-23.958-13.232 0-23.958 10.726-23.958 23.958 0 13.232 10.726 23.958 23.958 23.958z"/><path d="M18.304 20.83a4.687 4.687 0 1 0 0-9.376 4.687 4.687 0 0 0 0 9.375zm11.458 18.75a2.604 2.604 0 1 0 0-5.21 2.604 2.604 0 0 0 0 5.21zm9.376-14.584a3.646 3.646 0 1 0 0-7.292 3.646 3.646 0 0 0 0 7.292zm-16.146-9.371a19.39 19.39 0 0 1 12.5 5.208"/><path d="M39.864 24.925l.834 1.112s3.125 4.167 3.125 13.542m-8.7-36.339l.369.927a39.95 39.95 0 0 1 2.083 13.879m-1.042 5.912a21.458 21.458 0 0 1-4.45 11.836m-3.566 3.469l-.317.32s-5.209 5.209-16.667 5.209m13.542-43.75a35.594 35.594 0 0 0-6.77 10.416"/><path d="M15.87 20.15l-.17.683A26.446 26.446 0 0 0 17.783 37.5c3.542 7.096 12.5 10.417 12.5 10.417l.777.29M13.617 16.142s-7.992.573-12.032 4.11"/><path d="M1.7 30.275l.459-.07S16.494 28 28.146 34.932"/></g><defs><clipPath id="a"><path fill="#fff" d="M0 0h50v50H0z"/></clipPath></defs></svg>