<svg width="50" height="50" viewBox="0 0 50 50" fill="none" xmlns="http://www.w3.org/2000/svg"><path d="M35.417 21.875A10.416 10.416 0 1 1 25 11.458m-4.166 9.375l3.375 2.532a1.041 1.041 0 0 0 1.425-.167l9.783-11.74" stroke="#fff" stroke-width="2" stroke-linecap="round" stroke-linejoin="round"/><path d="M3.125 7.865v15.91a25.648 25.648 0 0 0 17.123 23.892l2.335.862a7.01 7.01 0 0 0 4.834 0l2.335-.862a25.648 25.648 0 0 0 17.123-23.892V7.865a3.194 3.194 0 0 0-1.946-2.93A50.494 50.494 0 0 0 25 1.042 50.494 50.494 0 0 0 5.07 4.935a3.194 3.194 0 0 0-1.945 2.93z" stroke="#fff" stroke-width="2" stroke-linecap="round" stroke-linejoin="round"/></svg>