<svg width="18" height="18" viewBox="0 0 18 18" fill="none" xmlns="http://www.w3.org/2000/svg">
<path d="M7.49921 14.5C7.38621 14.5 7.27521 14.461 7.18721 14.391L2.18721 10.391C1.97221 10.218 1.93721 9.903 2.10921 9.688C2.20421 9.568 2.34721 9.5 2.49921 9.5C2.61221 9.5 2.72321 9.539 2.81121 9.609L7.40521 13.284L14.0972 4.203C14.1902 4.076 14.3402 4 14.4992 4C14.6072 4 14.7092 4.034 14.7962 4.098C14.9032 4.177 14.9732 4.293 14.9942 4.425C15.0152 4.557 14.9812 4.689 14.9022 4.797L7.90221 14.297C7.82221 14.406 7.69921 14.479 7.56421 14.496C7.54321 14.499 7.52121 14.5 7.49921 14.5Z" fill="#1E325F" stroke="#1E325F" stroke-width="0.5"/>
</svg>
