<svg width="50" height="50" viewBox="0 0 50 50" fill="none" xmlns="http://www.w3.org/2000/svg">
<g clip-path="url(#clip0)">
<path d="M36.4665 17.7084H5.21647C2.91528 17.7084 1.0498 19.5739 1.0498 21.875V42.7084C1.0498 45.0096 2.91528 46.875 5.21647 46.875H36.4665C38.7677 46.875 40.6331 45.0096 40.6331 42.7084V21.875C40.6331 19.5739 38.7677 17.7084 36.4665 17.7084Z" stroke="white" stroke-width="2.08333" stroke-linecap="round" stroke-linejoin="round"/>
<path d="M10.4246 21.875H6.25798C5.68268 21.875 5.21631 22.3414 5.21631 22.9167V27.0833C5.21631 27.6586 5.68268 28.125 6.25798 28.125H10.4246C10.9999 28.125 11.4663 27.6586 11.4663 27.0833V22.9167C11.4663 22.3414 10.9999 21.875 10.4246 21.875Z" stroke="white" stroke-width="2.08333" stroke-linecap="round" stroke-linejoin="round"/>
<path d="M5.21631 34.375H15.633" stroke="white" stroke-width="2.08333" stroke-linecap="round" stroke-linejoin="round"/>
<path d="M5.21631 38.5416H13.5496" stroke="white" stroke-width="2.08333" stroke-linecap="round" stroke-linejoin="round"/>
<path d="M32.2913 33.3334C31.6998 33.3324 31.115 33.4579 30.576 33.7015C30.037 33.9452 29.5564 34.3012 29.1663 34.7459C28.6068 34.1106 27.867 33.6609 27.0455 33.4566C26.2239 33.2522 25.3597 33.303 24.5677 33.6021C23.7758 33.9011 23.0937 34.4343 22.6123 35.1307C22.1309 35.827 21.873 36.6535 21.873 37.5C21.873 38.3466 22.1309 39.1731 22.6123 39.8694C23.0937 40.5658 23.7758 41.099 24.5677 41.398C25.3597 41.6971 26.2239 41.7478 27.0455 41.5435C27.867 41.3392 28.6068 40.8895 29.1663 40.2542C29.6267 40.7768 30.2107 41.1757 30.8649 41.4144C31.5192 41.653 32.2228 41.7239 32.9115 41.6205C33.6002 41.5171 34.252 41.2428 34.8074 40.8225C35.3627 40.4022 35.8038 39.8495 36.0904 39.2147C36.377 38.58 36.5 37.8836 36.448 37.1891C36.396 36.4946 36.1708 35.8242 35.7929 35.2392C35.415 34.6542 34.8965 34.1733 34.2848 33.8403C33.6731 33.5074 32.9878 33.3331 32.2913 33.3334V33.3334Z" stroke="white" stroke-width="2.08333" stroke-linecap="round" stroke-linejoin="round"/>
<path d="M26.0415 33.3334C26.9933 33.3332 27.9165 33.6588 28.6575 34.2562C29.3985 34.8535 29.9126 35.6865 30.1144 36.6167" stroke="white" stroke-width="2.08333" stroke-linecap="round" stroke-linejoin="round"/>
<path d="M44.7917 30.2083C45.8967 30.2083 46.9565 29.7693 47.7379 28.9879C48.5193 28.2065 48.9583 27.1467 48.9583 26.0417V7.29167C48.9583 6.1866 48.5193 5.12679 47.7379 4.34539C46.9565 3.56399 45.8967 3.125 44.7917 3.125H13.5417C12.4366 3.125 11.3768 3.56399 10.5954 4.34539C9.81399 5.12679 9.375 6.1866 9.375 7.29167V13.5417" stroke="white" stroke-width="2.08333" stroke-linecap="round" stroke-linejoin="round"/>
<path d="M9.3833 11.4584H48.9666" stroke="white" stroke-width="2.08333" stroke-linecap="round" stroke-linejoin="round"/>
</g>
<defs>
<clipPath id="clip0">
<rect width="50" height="50" fill="white"/>
</clipPath>
</defs>
</svg>
