<svg width="150" height="42" viewBox="0 0 150 42" fill="none" xmlns="http://www.w3.org/2000/svg">
<path fill-rule="evenodd" clip-rule="evenodd" d="M41.2074 0H53.0405C53.306 0 53.5336 0.22756 53.5336 0.493047V3.18584C53.5336 3.45133 53.306 3.67889 53.0405 3.67889H45.1518C44.8863 3.67889 44.6587 3.90645 44.6587 4.17193V9.53856C44.6587 9.80405 44.8863 10.0316 45.1518 10.0316H52.0734C52.3389 10.0316 52.5664 10.2592 52.5664 10.5247V13.2174C52.5664 13.4829 52.3389 13.7105 52.0734 13.7105H45.1518C44.8863 13.7105 44.6587 13.9381 44.6587 14.2035V21.9406C44.6587 22.2061 44.4312 22.4336 44.1657 22.4336H41.2074C40.9419 22.4336 40.7144 22.2061 40.7144 21.9406V0.493047C40.7144 0.22756 40.923 0 41.2074 0Z" fill="#192F50"/>
<path fill-rule="evenodd" clip-rule="evenodd" d="M57.3641 0H60.0569C60.3224 0 60.55 0.22756 60.55 0.493047V21.9595C60.55 22.225 60.3224 22.4526 60.0569 22.4526H57.3641C57.0987 22.4526 56.8711 22.225 56.8711 21.9595V0.493047C56.8711 0.22756 57.0987 0 57.3641 0Z" fill="#192F50"/>
<path fill-rule="evenodd" clip-rule="evenodd" d="M66.6373 0.682678C67.6992 0.682678 68.7612 1.51707 68.7612 2.82554C68.7612 4.30468 67.6992 5.13906 66.6373 5.13906C65.3857 5.13906 64.3237 4.30468 64.3237 2.82554C64.3237 1.4981 65.3857 0.682678 66.6373 0.682678Z" fill="#192F50"/>
<path fill-rule="evenodd" clip-rule="evenodd" d="M65.1962 8.02148H67.889C68.1544 8.02148 68.382 8.24904 68.382 8.51453V21.9595C68.382 22.225 68.1544 22.4526 67.889 22.4526H65.1962C64.9307 22.4526 64.7031 22.225 64.7031 21.9595V8.51453C64.7031 8.24904 64.9307 8.02148 65.1962 8.02148Z" fill="#192F50"/>
<path fill-rule="evenodd" clip-rule="evenodd" d="M94.4565 22.4526H91.7637C91.4982 22.4526 91.2706 22.225 91.2706 21.9595V13.9949C91.2706 12.1934 90.5311 11.2452 88.8054 11.2452C87.478 11.2452 86.416 11.871 85.8851 12.8002C85.8471 12.8761 85.8282 12.9709 85.8282 13.0657C85.8282 13.3312 85.8661 13.7105 85.8661 13.976V21.9785C85.8661 22.244 85.6385 22.4715 85.373 22.4715H82.6803C82.4148 22.4715 82.1872 22.244 82.1872 21.9785V13.7484C82.1872 12.2503 81.3528 11.2452 79.7789 11.2452C78.5273 11.2452 77.5033 11.7762 76.8585 12.6485C76.8016 12.7244 76.7637 12.8382 76.7637 12.933V21.9595C76.7637 22.225 76.5361 22.4526 76.2706 22.4526H73.5399C73.2744 22.4526 73.0469 22.225 73.0469 21.9595V8.51451C73.0469 8.24903 73.2744 8.02147 73.5399 8.02147H76.2327C76.4982 8.02147 76.7258 8.24903 76.7258 8.51451C76.7258 8.91274 77.1809 9.15927 77.5033 8.91274C78.5083 8.19214 79.8547 7.75598 81.239 7.75598C83.0974 7.75598 84.4438 8.45762 85.1265 9.46268C85.3162 9.72817 85.6765 9.76609 85.904 9.53853C86.928 8.47659 88.3882 7.75598 90.3225 7.75598C92.9584 7.75598 94.9495 9.06445 94.9495 13.0088V21.9406C94.9495 22.225 94.722 22.4526 94.4565 22.4526Z" fill="#1E325F"/>
<path d="M110.936 20.6701C111.03 20.8787 110.955 21.1252 110.765 21.2579C109.343 22.3199 107.427 22.8129 105.55 22.8129C100.904 22.8129 97.7939 19.7977 97.7939 15.2465C97.7939 11.0367 100.676 7.68018 105.436 7.68018C109.153 7.68018 112.263 10.335 112.263 14.3742C112.263 15.0569 112.225 15.531 112.13 15.9672C112.073 16.1947 111.884 16.3654 111.637 16.3654H102.212C101.89 16.3654 101.644 16.6878 101.738 16.9912C102.269 18.7737 103.881 19.7219 105.929 19.7219C107.389 19.7219 108.66 19.2857 109.532 18.7358C109.798 18.5841 110.139 18.6979 110.253 18.9823L110.936 20.6701ZM102.137 13.8812H108.053C108.357 13.8812 108.584 13.6157 108.546 13.3123C108.338 11.8331 107.162 10.7333 105.284 10.7333C103.331 10.7333 102.174 11.7004 101.662 13.2364C101.568 13.5588 101.795 13.8812 102.137 13.8812Z" fill="#192F50"/>
<path d="M144.005 33.5811L8.73975 33.7769L8.7451 37.4748L144.011 37.2789L144.005 33.5811Z" fill="#FFD664"/>
<path d="M11.871 35.6321C11.871 32.3515 9.21618 29.6966 5.93552 29.6966C2.65487 29.6966 0 32.3515 0 35.6321C0 38.9128 2.65487 41.5676 5.93552 41.5676C9.21618 41.5676 11.871 38.9128 11.871 35.6321ZM3.71681 35.7269C3.71681 34.4754 4.5512 33.4134 6.03034 33.4134C7.33881 33.4134 8.1732 34.4754 8.1732 35.7269C8.1732 36.7889 7.33881 37.8508 6.03034 37.8508C4.5512 37.8508 3.71681 36.7889 3.71681 35.7269Z" fill="#FFD664"/>
<path fill-rule="evenodd" clip-rule="evenodd" d="M149.905 35.4994C149.905 32.2187 147.25 29.5638 143.97 29.5638C140.689 29.5638 138.034 32.2187 138.034 35.4994C138.034 38.78 140.689 41.4349 143.97 41.4349C147.25 41.4349 149.905 38.78 149.905 35.4994Z" fill="#FFD664"/>
</svg>
