<svg width="149" height="41" viewBox="0 0 149 41" fill="none" xmlns="http://www.w3.org/2000/svg">
<path fill-rule="evenodd" clip-rule="evenodd" d="M40.9588 0H52.7205C52.9844 0 53.2106 0.224453 53.2106 0.486314V3.14234C53.2106 3.4042 52.9844 3.62865 52.7205 3.62865H44.8794C44.6155 3.62865 44.3893 3.8531 44.3893 4.11496V9.4083C44.3893 9.67016 44.6155 9.89462 44.8794 9.89462H51.7592C52.0231 9.89462 52.2493 10.1191 52.2493 10.3809V13.037C52.2493 13.2988 52.0231 13.5233 51.7592 13.5233H44.8794C44.6155 13.5233 44.3893 13.7477 44.3893 14.0096V21.641C44.3893 21.9028 44.1631 22.1273 43.8992 22.1273H40.9588C40.6949 22.1273 40.4688 21.9028 40.4688 21.641V0.486314C40.4688 0.224453 40.6761 0 40.9588 0Z" fill="white"/>
<path fill-rule="evenodd" clip-rule="evenodd" d="M57.0179 0H59.6944C59.9583 0 60.1845 0.224453 60.1845 0.486314V21.6597C60.1845 21.9215 59.9583 22.146 59.6944 22.146H57.0179C56.754 22.146 56.5278 21.9215 56.5278 21.6597V0.486314C56.5278 0.224453 56.754 0 57.0179 0Z" fill="white"/>
<path fill-rule="evenodd" clip-rule="evenodd" d="M66.2351 0.67334C67.2906 0.67334 68.3462 1.49633 68.3462 2.78693C68.3462 4.24588 67.2906 5.06887 66.2351 5.06887C64.9911 5.06887 63.9355 4.24588 63.9355 2.78693C63.9355 1.47763 64.9911 0.67334 66.2351 0.67334Z" fill="white"/>
<path fill-rule="evenodd" clip-rule="evenodd" d="M64.8026 7.91211H67.4791C67.743 7.91211 67.9692 8.13656 67.9692 8.39842V21.6598C67.9692 21.9217 67.743 22.1461 67.4791 22.1461H64.8026C64.5387 22.1461 64.3125 21.9217 64.3125 21.6598V8.39842C64.3125 8.13656 64.5387 7.91211 64.8026 7.91211Z" fill="white"/>
<path fill-rule="evenodd" clip-rule="evenodd" d="M93.8858 22.1458H91.2093C90.9454 22.1458 90.7192 21.9213 90.7192 21.6595V13.8036C90.7192 12.0267 89.9841 11.0915 88.2689 11.0915C86.9494 11.0915 85.8939 11.7088 85.3661 12.6253C85.3284 12.7001 85.3096 12.7936 85.3096 12.8871C85.3096 13.149 85.3473 13.5231 85.3473 13.7849V21.6782C85.3473 21.94 85.1211 22.1645 84.8572 22.1645H82.1807C81.9168 22.1645 81.6906 21.94 81.6906 21.6782V13.5605C81.6906 12.0828 80.8613 11.0915 79.2968 11.0915C78.0528 11.0915 77.0349 11.6152 76.3941 12.4756C76.3375 12.5504 76.2998 12.6627 76.2998 12.7562V21.6595C76.2998 21.9213 76.0737 22.1458 75.8098 22.1458H73.0955C72.8317 22.1458 72.6055 21.9213 72.6055 21.6595V8.39808C72.6055 8.13622 72.8317 7.91176 73.0955 7.91176H75.7721C76.036 7.91176 76.2621 8.13622 76.2621 8.39808C76.2621 8.79087 76.7145 9.03403 77.0349 8.79087C78.0339 8.0801 79.3722 7.6499 80.7482 7.6499C82.5953 7.6499 83.9336 8.34196 84.6122 9.3333C84.8007 9.59516 85.1588 9.63257 85.385 9.40811C86.4028 8.36067 87.8542 7.6499 89.7768 7.6499C92.3967 7.6499 94.3759 8.9405 94.3759 12.831V21.6408C94.3759 21.9213 94.1497 22.1458 93.8858 22.1458Z" fill="white"/>
<path d="M110.265 20.3872C110.36 20.593 110.284 20.8361 110.096 20.967C108.682 22.0145 106.778 22.5008 104.912 22.5008C100.294 22.5008 97.2031 19.5268 97.2031 15.0378C97.2031 10.8854 100.068 7.57471 104.799 7.57471C108.494 7.57471 111.585 10.1933 111.585 14.1774C111.585 14.8507 111.547 15.3183 111.453 15.7485C111.396 15.973 111.208 16.1413 110.963 16.1413H101.595C101.274 16.1413 101.029 16.4593 101.124 16.7586C101.651 18.5168 103.254 19.452 105.289 19.452C106.741 19.452 108.004 19.0218 108.871 18.4794C109.134 18.3297 109.474 18.442 109.587 18.7225L110.265 20.3872ZM101.52 13.691H107.4C107.702 13.691 107.928 13.4292 107.89 13.1299C107.683 11.671 106.514 10.5861 104.648 10.5861C102.707 10.5861 101.557 11.54 101.048 13.0551C100.954 13.3731 101.18 13.691 101.52 13.691Z" fill="white"/>
<path d="M143.136 33.1228L8.6875 33.3159L8.69282 36.9633L143.142 36.7701L143.136 33.1228Z" fill="#FFD664"/>
<path d="M11.7994 35.145C11.7994 31.9091 9.16053 29.2905 5.89968 29.2905C2.63884 29.2905 0 31.9091 0 35.145C0 38.3809 2.63884 40.9995 5.89968 40.9995C9.16053 40.9995 11.7994 38.3809 11.7994 35.145ZM3.69437 35.2385C3.69437 34.004 4.52372 32.9566 5.99393 32.9566C7.2945 32.9566 8.12385 34.004 8.12385 35.2385C8.12385 36.286 7.2945 37.3334 5.99393 37.3334C4.52372 37.3334 3.69437 36.286 3.69437 35.2385Z" fill="#FFD664"/>
<path fill-rule="evenodd" clip-rule="evenodd" d="M149.001 35.0141C149.001 31.7783 146.362 29.1597 143.101 29.1597C139.84 29.1597 137.201 31.7783 137.201 35.0141C137.201 38.25 139.84 40.8686 143.101 40.8686C146.362 40.8686 149.001 38.25 149.001 35.0141Z" fill="#FFD664"/>
</svg>
