<svg width="17" height="16" viewBox="0 0 17 16" fill="none" xmlns="http://www.w3.org/2000/svg">
<path d="M4.69589 14.9377H1.23755V5.72933H4.69589V14.9377ZM10.9209 8.56266C10.554 8.56266 10.2022 8.71192 9.94273 8.97759C9.6833 9.24327 9.53756 9.60361 9.53756 9.97933V14.9377H6.07922V5.72933H9.53756V6.7812C10.3097 6.11104 11.2853 5.73668 12.2973 5.72225C14.346 5.72225 15.7626 7.28058 15.7626 10.2237V14.9377H12.3042V9.97933C12.3042 9.60361 12.1585 9.24327 11.8991 8.97759C11.6396 8.71192 11.2878 8.56266 10.9209 8.56266V8.56266ZM4.69589 2.54183C4.69589 2.89207 4.59447 3.23444 4.40447 3.52565C4.21447 3.81686 3.94441 4.04384 3.62844 4.17787C3.31248 4.3119 2.9648 4.34696 2.62937 4.27864C2.29395 4.21031 1.98584 4.04165 1.74401 3.794C1.50218 3.54634 1.3375 3.23081 1.27078 2.8873C1.20405 2.54379 1.2383 2.18774 1.36917 1.86416C1.50005 1.54058 1.72168 1.26402 2.00604 1.06944C2.2904 0.874854 2.62472 0.770996 2.96672 0.770996C3.42532 0.770996 3.86514 0.957565 4.18942 1.28966C4.51371 1.62176 4.69589 2.07218 4.69589 2.54183Z" stroke="white" stroke-width="0.699951" stroke-linecap="round" stroke-linejoin="round"/>
</svg>
