<svg width="50" height="50" viewBox="0 0 50 50" fill="none" xmlns="http://www.w3.org/2000/svg">
<g clip-path="url(#clip0)">
<path d="M25.075 48.9543C38.3069 48.9543 49.0334 38.2278 49.0334 24.9959C49.0334 11.7641 38.3069 1.0376 25.075 1.0376C11.8432 1.0376 1.1167 11.7641 1.1167 24.9959C1.1167 38.2278 11.8432 48.9543 25.075 48.9543Z" stroke="white" stroke-width="2" stroke-linecap="round" stroke-linejoin="round"/>
<path d="M18.3042 20.8292C20.893 20.8292 22.9917 18.7306 22.9917 16.1417C22.9917 13.5529 20.893 11.4542 18.3042 11.4542C15.7154 11.4542 13.6167 13.5529 13.6167 16.1417C13.6167 18.7306 15.7154 20.8292 18.3042 20.8292Z" stroke="white" stroke-width="2" stroke-linecap="round" stroke-linejoin="round"/>
<path d="M29.7624 39.5792C31.2006 39.5792 32.3665 38.4133 32.3665 36.975C32.3665 35.5368 31.2006 34.3708 29.7624 34.3708C28.3241 34.3708 27.1582 35.5368 27.1582 36.975C27.1582 38.4133 28.3241 39.5792 29.7624 39.5792Z" stroke="white" stroke-width="2" stroke-linecap="round" stroke-linejoin="round"/>
<path d="M39.1375 24.9959C41.1511 24.9959 42.7834 23.3636 42.7834 21.3501C42.7834 19.3365 41.1511 17.7042 39.1375 17.7042C37.124 17.7042 35.4917 19.3365 35.4917 21.3501C35.4917 23.3636 37.124 24.9959 39.1375 24.9959Z" stroke="white" stroke-width="2" stroke-linecap="round" stroke-linejoin="round"/>
<path d="M22.9917 15.625C27.6489 15.8024 32.0864 17.6514 35.4917 20.8333" stroke="white" stroke-width="2" stroke-linecap="round" stroke-linejoin="round"/>
<path d="M39.8643 24.9249L40.6976 26.0374C40.6976 26.0374 43.8226 30.2041 43.8226 39.5791" stroke="white" stroke-width="2" stroke-linecap="round" stroke-linejoin="round"/>
<path d="M35.123 3.23962L35.4918 4.16671C36.9998 8.63391 37.7051 13.3328 37.5751 18.0459" stroke="white" stroke-width="2" stroke-linecap="round" stroke-linejoin="round"/>
<path d="M36.5335 23.9584C36.2726 28.2609 34.7219 32.3851 32.0835 35.7938" stroke="white" stroke-width="2" stroke-linecap="round" stroke-linejoin="round"/>
<path d="M28.5165 39.2625L28.1999 39.5833C28.1999 39.5833 22.9915 44.7916 11.5332 44.7916" stroke="white" stroke-width="2" stroke-linecap="round" stroke-linejoin="round"/>
<path d="M25.075 1.04163C22.2249 4.09007 19.933 7.61599 18.3042 11.4583" stroke="white" stroke-width="2" stroke-linecap="round" stroke-linejoin="round"/>
<path d="M15.8709 20.15L15.7001 20.8334C14.565 26.4677 15.2963 32.3185 17.7834 37.5C21.3251 44.5959 30.2834 47.9167 30.2834 47.9167L31.0605 48.2063" stroke="white" stroke-width="2" stroke-linecap="round" stroke-linejoin="round"/>
<path d="M13.6167 16.1417C13.6167 16.1417 5.62503 16.7146 1.58545 20.2521" stroke="white" stroke-width="2" stroke-linecap="round" stroke-linejoin="round"/>
<path d="M1.7002 30.275L2.15853 30.2042C2.15853 30.2042 16.4939 28 28.146 34.9334" stroke="white" stroke-width="2" stroke-linecap="round" stroke-linejoin="round"/>
</g>
<defs>
<clipPath id="clip0">
<rect width="50" height="50" fill="white"/>
</clipPath>
</defs>
</svg>
