<svg width="50" height="50" viewBox="0 0 50 50" fill="none" xmlns="http://www.w3.org/2000/svg">
<path d="M35.4168 21.875C35.4168 23.9353 34.8059 25.9492 33.6613 27.6622C32.5167 29.3752 30.8899 30.7104 28.9865 31.4988C27.0831 32.2872 24.9886 32.4935 22.968 32.0916C20.9473 31.6896 19.0913 30.6975 17.6345 29.2407C16.1777 27.7839 15.1856 25.9279 14.7837 23.9072C14.3817 21.8866 14.588 19.7922 15.3764 17.8888C16.1648 15.9854 17.5 14.3585 19.213 13.2139C20.926 12.0693 22.9399 11.4584 25.0002 11.4584" stroke="white" stroke-width="2" stroke-linecap="round" stroke-linejoin="round"/>
<path d="M20.8335 20.8334L24.2085 23.3646C24.4221 23.5248 24.6891 23.5967 24.9543 23.5657C25.2194 23.5347 25.4626 23.4031 25.6335 23.198L35.4168 11.4584" stroke="white" stroke-width="2" stroke-linecap="round" stroke-linejoin="round"/>
<path d="M3.125 7.86463V23.775C3.18621 29.0323 4.86162 34.1437 7.92434 38.4171C10.9871 42.6906 15.2891 45.9195 20.2479 47.6667L22.5833 48.5292C24.1435 49.1022 25.8565 49.1022 27.4167 48.5292L29.7521 47.6667C34.7109 45.9195 39.0129 42.6906 42.0757 38.4171C45.1384 34.1437 46.8138 29.0323 46.875 23.775V7.86463C46.8729 7.23953 46.6874 6.6288 46.3415 6.10812C45.9956 5.58744 45.5046 5.1797 44.9292 4.93546C38.6183 2.30141 31.8382 0.976707 25 1.04171C18.1618 0.976707 11.3817 2.30141 5.07083 4.93546C4.49543 5.1797 4.00435 5.58744 3.65846 6.10812C3.31258 6.6288 3.12709 7.23953 3.125 7.86463V7.86463Z" stroke="white" stroke-width="2" stroke-linecap="round" stroke-linejoin="round"/>
</svg>
