<svg width="17" height="14" viewBox="0 0 17 14" fill="none" xmlns="http://www.w3.org/2000/svg">
<path d="M6.58178 13.6063C4.8367 13.6063 2.94291 13.1466 0.951603 12.2406C0.801511 12.1719 0.718511 12.0033 0.754478 11.839C0.789753 11.6789 0.931545 11.5627 1.09201 11.5627C1.15564 11.5641 1.21167 11.5649 1.267 11.5649C2.40825 11.5649 3.53014 11.2815 4.54205 10.7418C3.31365 10.5484 2.41655 10.1114 1.81965 8.88806C1.77676 8.79952 1.77123 8.6961 1.80581 8.60402C1.8397 8.51194 1.91025 8.43827 2.00017 8.40144L2.73749 8.09969C1.34309 7.51248 0.935695 6.21835 0.752403 5.25644C0.730961 5.1424 0.764853 5.02481 0.843703 4.94123C0.90872 4.87252 0.999328 4.83356 1.09201 4.83356C1.11138 4.83356 1.13074 4.83498 1.15011 4.83852L2.2879 5.0326C1.6737 4.05794 1.50632 2.7801 1.7906 1.22673C1.8148 1.09427 1.91302 0.985188 2.0396 0.949771C2.06865 0.941979 2.09908 0.937729 2.12951 0.937729C2.2298 0.937729 2.32525 0.982354 2.39096 1.05956C4.20106 3.19448 5.93368 4.2329 7.68775 4.2329C7.90839 4.2329 8.1318 4.2159 8.35452 4.1826V3.77106C8.34968 2.86935 8.67822 2.00802 9.27997 1.34785C9.90731 0.658646 10.7594 0.261271 11.6794 0.228688C11.7209 0.227271 11.7624 0.226562 11.8039 0.226562C12.6069 0.226562 13.3822 0.514854 13.9992 1.04044L15.5223 0.597021C15.5534 0.587812 15.5852 0.583563 15.617 0.583563C15.7201 0.583563 15.8176 0.630313 15.8833 0.711771C15.9705 0.819438 15.9871 0.970312 15.9262 1.09569L15.4275 2.11781L16.3924 2.36502C16.5197 2.3976 16.6165 2.4989 16.6455 2.62923C16.6746 2.75956 16.631 2.89415 16.53 2.97985L15.2712 4.05865V4.83356C15.2712 7.78731 13.7883 10.6086 11.4013 12.1974C9.99654 13.1324 8.37527 13.6063 6.58316 13.6063H6.58178ZM2.60953 12.1521C4.00393 12.6465 5.33747 12.8972 6.58178 12.8972C8.2397 12.8972 9.7344 12.4616 11.0244 11.6038C13.2176 10.1446 14.5795 7.55073 14.5795 4.83427V3.8929C14.5795 3.78735 14.6245 3.68819 14.7033 3.6209L15.5652 2.88281L14.8417 2.69723C14.7393 2.67102 14.6549 2.59948 14.6113 2.50102C14.5678 2.40327 14.5691 2.29135 14.6162 2.19502L14.9572 1.49731L14.0075 1.77356C13.9771 1.78277 13.9453 1.78702 13.9135 1.78702C13.8256 1.78702 13.7419 1.75302 13.6776 1.6921C13.1658 1.20335 12.5018 0.934188 11.8073 0.934188C11.7727 0.934188 11.7388 0.934896 11.7043 0.936313C10.969 0.962521 10.2877 1.27985 9.78627 1.83094C9.30556 2.35865 9.04273 3.04715 9.04619 3.76894V4.4794C9.04619 4.64656 8.92999 4.79248 8.77021 4.82648C8.40709 4.90298 8.0405 4.94194 7.68083 4.94194C5.88665 4.94194 4.14641 4.00835 2.37021 2.0909C2.25263 3.47923 2.59777 4.54952 3.39734 5.27769C3.51146 5.38181 3.54536 5.55394 3.47965 5.6949C3.42224 5.81744 3.29981 5.89606 3.16701 5.89606C3.14834 5.89606 3.12897 5.89465 3.10961 5.8911L1.55059 5.62477C1.91302 6.88915 2.6455 7.5231 3.89811 7.66902C4.05581 7.68744 4.18031 7.81281 4.20175 7.9736C4.22319 8.1344 4.13466 8.28952 3.98733 8.34973L2.62751 8.90719C3.26246 9.88681 4.23495 10.037 5.61482 10.1475C5.75938 10.1595 5.8825 10.2629 5.92123 10.406C5.95997 10.5491 5.90671 10.7028 5.78912 10.7892C4.84292 11.4806 3.75562 11.9452 2.60953 12.1521Z" fill="white"/>
</svg>
