<svg width="150" height="42" viewBox="0 0 150 42" fill="none" xmlns="http://www.w3.org/2000/svg"><path fill-rule="evenodd" clip-rule="evenodd" d="M41.207 0h11.834c.265 0 .493.228.493.493v2.693a.502.502 0 0 1-.493.493h-7.89a.502.502 0 0 0-.492.493v5.367c0 .265.227.493.493.493h6.921c.266 0 .493.227.493.493v2.692a.502.502 0 0 1-.493.493h-6.921a.502.502 0 0 0-.493.493v7.738a.502.502 0 0 1-.493.493h-2.959a.502.502 0 0 1-.493-.493V.493A.49.49 0 0 1 41.207 0zm16.157 0h2.693c.265 0 .493.228.493.493v21.466a.502.502 0 0 1-.493.494h-2.693a.502.502 0 0 1-.493-.494V.493c0-.265.228-.493.493-.493zm9.273.683c1.062 0 2.124.834 2.124 2.143 0 1.479-1.062 2.313-2.124 2.313-1.251 0-2.313-.834-2.313-2.313 0-1.328 1.062-2.143 2.313-2.143zm-1.441 7.338h2.693c.265 0 .493.228.493.494v13.444a.502.502 0 0 1-.493.494h-2.693a.502.502 0 0 1-.493-.494V8.515c0-.266.228-.494.493-.494z" fill="#192F50"/><path fill-rule="evenodd" clip-rule="evenodd" d="M94.457 22.453h-2.693a.502.502 0 0 1-.493-.494v-7.964c0-1.802-.74-2.75-2.466-2.75-1.327 0-2.389.626-2.92 1.555a.605.605 0 0 0-.057.266c0 .265.038.644.038.91v8.002a.502.502 0 0 1-.493.493H82.68a.502.502 0 0 1-.493-.492v-8.23c0-1.499-.834-2.504-2.408-2.504-1.252 0-2.276.531-2.92 1.404a.511.511 0 0 0-.095.284v9.026a.502.502 0 0 1-.493.494H73.54a.502.502 0 0 1-.493-.494V8.515c0-.266.227-.494.493-.494h2.693c.265 0 .493.228.493.494 0 .398.455.644.777.398 1.005-.72 2.352-1.157 3.736-1.157 1.858 0 3.205.702 3.887 1.707.19.265.55.303.778.076 1.024-1.062 2.484-1.783 4.419-1.783 2.635 0 4.627 1.308 4.627 5.253v8.932a.506.506 0 0 1-.493.512z" fill="#1E325F"/><path d="M110.936 20.67a.48.48 0 0 1-.171.588c-1.422 1.062-3.338 1.555-5.215 1.555-4.646 0-7.756-3.015-7.756-7.566 0-4.21 2.882-7.567 7.642-7.567 3.717 0 6.827 2.655 6.827 6.694 0 .683-.038 1.157-.133 1.593a.507.507 0 0 1-.493.398h-9.425c-.322 0-.568.323-.474.626.531 1.783 2.143 2.73 4.191 2.73 1.46 0 2.731-.435 3.603-.985a.506.506 0 0 1 .721.246l.683 1.688zm-8.799-6.789h5.916a.499.499 0 0 0 .493-.569c-.208-1.479-1.384-2.579-3.262-2.579-1.953 0-3.11.967-3.622 2.503a.496.496 0 0 0 .475.645z" fill="#192F50"/><path d="M144.005 33.581L8.74 33.777l.005 3.698 135.266-.196-.006-3.698z" fill="#FFD664"/><path d="M11.871 35.632a5.932 5.932 0 0 0-5.935-5.935A5.932 5.932 0 0 0 0 35.632a5.932 5.932 0 0 0 5.936 5.936 5.932 5.932 0 0 0 5.935-5.936zm-8.154.095c0-1.252.834-2.314 2.313-2.314 1.309 0 2.143 1.062 2.143 2.314 0 1.062-.834 2.124-2.143 2.124-1.479 0-2.313-1.062-2.313-2.124z" fill="#FFD664"/><path fill-rule="evenodd" clip-rule="evenodd" d="M149.905 35.5a5.932 5.932 0 0 0-5.935-5.936 5.932 5.932 0 0 0-5.936 5.935 5.932 5.932 0 0 0 5.936 5.936 5.932 5.932 0 0 0 5.935-5.936z" fill="#FFD664"/></svg>