<svg width="149" height="41" viewBox="0 0 149 41" fill="none" xmlns="http://www.w3.org/2000/svg"><path fill-rule="evenodd" clip-rule="evenodd" d="M40.959 0H52.72c.264 0 .49.224.49.486v2.656a.497.497 0 0 1-.49.487h-7.84a.497.497 0 0 0-.49.486v5.293c0 .262.225.487.49.487h6.88c.263 0 .49.224.49.486v2.656a.497.497 0 0 1-.49.486h-6.88a.497.497 0 0 0-.49.487v7.631a.497.497 0 0 1-.49.486h-2.941a.497.497 0 0 1-.49-.486V.486c0-.262.207-.486.49-.486zm16.059 0h2.676c.264 0 .49.224.49.486V21.66a.497.497 0 0 1-.49.486h-2.676a.497.497 0 0 1-.49-.486V.486c0-.262.226-.486.49-.486zm9.217.673c1.056 0 2.111.823 2.111 2.114 0 1.459-1.055 2.282-2.11 2.282-1.245 0-2.3-.823-2.3-2.282 0-1.31 1.055-2.114 2.3-2.114zm-1.432 7.239h2.676c.264 0 .49.225.49.486V21.66a.497.497 0 0 1-.49.486h-2.676a.497.497 0 0 1-.49-.486V8.398c0-.261.226-.486.49-.486zm29.083 14.234h-2.677a.497.497 0 0 1-.49-.486v-7.856c0-1.777-.735-2.713-2.45-2.713-1.32 0-2.375.618-2.903 1.534a.593.593 0 0 0-.056.262c0 .262.037.636.037.898v7.893a.497.497 0 0 1-.49.486h-2.676a.497.497 0 0 1-.49-.486V13.56c0-1.477-.83-2.469-2.394-2.469-1.244 0-2.262.524-2.903 1.385a.501.501 0 0 0-.094.28v8.904a.497.497 0 0 1-.49.486h-2.715a.497.497 0 0 1-.49-.486V8.398c0-.262.227-.486.49-.486h2.677c.264 0 .49.224.49.486 0 .393.453.636.773.393.999-.71 2.337-1.141 3.713-1.141 1.847 0 3.186.692 3.864 1.683.189.262.547.3.773.075 1.018-1.047 2.47-1.758 4.392-1.758 2.62 0 4.599 1.29 4.599 5.181v8.81c0 .28-.226.505-.49.505z" fill="#fff"/><path d="M110.265 20.387a.47.47 0 0 1-.169.58c-1.414 1.048-3.318 1.534-5.184 1.534-4.618 0-7.709-2.974-7.709-7.463 0-4.153 2.865-7.463 7.596-7.463 3.695 0 6.786 2.618 6.786 6.602 0 .674-.038 1.141-.132 1.572a.504.504 0 0 1-.49.392h-9.368c-.321 0-.566.318-.471.618.527 1.758 2.13 2.693 4.165 2.693 1.452 0 2.715-.43 3.582-.973a.504.504 0 0 1 .716.244l.678 1.664zm-8.745-6.696h5.88a.493.493 0 0 0 .49-.561c-.207-1.459-1.376-2.544-3.242-2.544-1.941 0-3.091.954-3.6 2.47a.49.49 0 0 0 .472.635z" fill="#fff"/><path d="M143.136 33.123l-134.448.193.005 3.647 134.449-.193-.006-3.647z" fill="#FFD664"/><path d="M11.8 35.145c0-3.236-2.64-5.855-5.9-5.855-3.261 0-5.9 2.62-5.9 5.855 0 3.236 2.639 5.854 5.9 5.854 3.26 0 5.9-2.618 5.9-5.854zm-8.106.093c0-1.234.83-2.281 2.3-2.281 1.3 0 2.13 1.047 2.13 2.282 0 1.047-.83 2.094-2.13 2.094-1.47 0-2.3-1.047-2.3-2.094z" fill="#FFD664"/><path fill-rule="evenodd" clip-rule="evenodd" d="M149.001 35.014c0-3.236-2.639-5.854-5.9-5.854-3.261 0-5.9 2.618-5.9 5.854s2.639 5.855 5.9 5.855c3.261 0 5.9-2.619 5.9-5.855z" fill="#FFD664"/></svg>