<svg width="17" height="14" viewBox="0 0 17 14" fill="none" xmlns="http://www.w3.org/2000/svg"><path d="M6.582 13.606c-1.745 0-3.64-.46-5.63-1.365a.358.358 0 0 1-.198-.402.35.35 0 0 1 .338-.276l.175.002a6.954 6.954 0 0 0 3.275-.823c-1.228-.194-2.125-.63-2.722-1.854a.362.362 0 0 1-.014-.284A.349.349 0 0 1 2 8.401l.737-.301C1.343 7.512.936 6.218.752 5.256a.362.362 0 0 1 .092-.315.344.344 0 0 1 .306-.102l1.138.194c-.614-.975-.782-2.253-.497-3.806A.354.354 0 0 1 2.04.95a.344.344 0 0 1 .351.11c1.81 2.134 3.543 3.173 5.297 3.173.22 0 .444-.017.667-.05V3.77a3.558 3.558 0 0 1 .925-2.423A3.386 3.386 0 0 1 14 1.04l1.522-.443a.342.342 0 0 1 .361.115.361.361 0 0 1 .043.384l-.498 1.022.964.247a.348.348 0 0 1 .253.264.356.356 0 0 1-.115.35l-1.259 1.08v.775c0 2.953-1.483 5.775-3.87 7.363-1.404.935-3.026 1.41-4.818 1.41h-.001zM2.61 12.152c1.394.495 2.727.745 3.972.745 1.658 0 3.152-.435 4.442-1.293 2.194-1.46 3.556-4.053 3.556-6.77v-.941c0-.106.044-.205.123-.272l.862-.738-.723-.186a.345.345 0 0 1-.23-.196.362.362 0 0 1 .004-.306l.341-.698-.95.277a.342.342 0 0 1-.33-.081 2.7 2.7 0 0 0-1.973-.757 2.706 2.706 0 0 0-1.918.895 2.848 2.848 0 0 0-.74 1.938v.71a.354.354 0 0 1-.276.347c-.363.077-.73.116-1.09.116-1.793 0-3.534-.934-5.31-2.851-.117 1.388.228 2.459 1.027 3.187a.363.363 0 0 1 .083.417.347.347 0 0 1-.37.196l-1.56-.266c.363 1.264 1.096 1.898 2.348 2.044a.35.35 0 0 1 .304.305.355.355 0 0 1-.215.376l-1.36.557c.635.98 1.608 1.13 2.988 1.24a.35.35 0 0 1 .306.259.36.36 0 0 1-.132.383 7.71 7.71 0 0 1-3.18 1.363z" fill="#fff"/></svg>