<?xml version="1.0" encoding="UTF-8"?>
<svg width="16px" height="15px" viewBox="0 0 16 15" version="1.1" xmlns="http://www.w3.org/2000/svg" xmlns:xlink="http://www.w3.org/1999/xlink">
    <!-- Generator: Sketch 52.1 (67048) - http://www.bohemiancoding.com/sketch -->
    <title>Artboard</title>
    <desc>Created with Sketch.</desc>
    <g id="Artboard" stroke="none" stroke-width="1" fill="none" fill-rule="evenodd">
        <rect id="Rectangle" fill="#1D335E" x="0" y="0" width="16.02" height="15"></rect>
        <path d="M4.34901758,2.99921107e-05 L12.6509824,2.99921107e-05 C12.8419367,1.38236034e-05 12.9974539,0.146171959 13,0.328043521 L13,2.154281 C12.9974937,2.33688794 12.8426918,2.48433982 12.6509824,2.48672715 L7.11323682,2.48672715 C6.92304982,2.48672715 6.7688728,2.63358381 6.7688728,2.81474068 L6.7688728,6.3962938 C6.76885583,6.57818153 6.92229951,6.72631477 7.11323682,6.72873994 L11.9762151,6.72873994 C12.1689722,6.72873994 12.3252327,6.87758115 12.3252327,7.06118609 L12.3252327,8.86082788 C12.3227264,9.04343481 12.1679244,9.1908867 11.9762151,9.19327402 L7.11323682,9.19327402 C7.02109377,9.19326601 6.93279075,9.22843228 6.86807452,9.2909088 C6.80335829,9.35338531 6.76762763,9.43796011 6.7688728,9.52572017 L6.7688728,14.6675539 C6.76636648,14.8501608 6.61156456,14.9976127 6.41985522,15 L4.34901758,15 C4.15626049,15 4,14.8511588 4,14.6675539 L4,0.328043521 C3.99999159,0.240275449 4.0369108,0.15616508 4.10250157,0.0945215891 C4.16809235,0.0328780983 4.25688295,-0.00115606328 4.34901758,2.99921107e-05 Z" id="Path" fill="#F4D165"></path>
    </g>
</svg>